<svg viewBox="0 0 800 410" style="transform:translate3d(0,0,0);content-visibility:visible" xmlns="http://www.w3.org/2000/svg"><defs><clipPath id="a"><path d="M0 0h800v410H0z"/></clipPath></defs><g clip-path="url(#a)" stroke-miterlimit="10" fill="none"><path stroke="#27607b" stroke-width="30" d="M-343.843 6.862A153 153 0 0 1-344 0c-.052-94.424 85.51-159.133 155-160 56.718-.708 105.182 35.999 128.422 70.38C0 0-8.304 23.34 60.366 90.809 90.524 120.44 138.796 155.991 195 155c77.203-1.361 148-75.502 148-155 0-88.638-68.375-153.52-146-160-39.464-3.295-118-.604-197 160-16.674 33.896-33.129 60.481-49.075 81.338" transform="translate(400 206)" style="display:block"/><path stroke="#fff" stroke-width="30" d="M-343.843 6.862A153 153 0 0 1-344 0c-.052-94.424 85.51-159.133 155-160 56.718-.708 105.182 35.999 128.422 70.38C0 0-8.304 23.34 60.366 90.809 90.524 120.44 138.796 155.991 195 155c77.203-1.361 148-75.502 148-155 0-88.638-68.375-153.52-146-160-39.464-3.295-118-.604-197 160-16.674 33.896-33.129 60.481-49.075 81.338" transform="translate(400.5 206.821)" style="display:block"/><path stroke="#27607b" stroke-width="20" d="M-193.997 123.007c-20.015 4.767-37.545 2.732-52.218 1.222-15.169-1.561-31.594-7.935-46.919-18.187" transform="translate(441.756 211.719)" style="display:block"/><path stroke="#f3b366" stroke-width="20" d="M131.322-193.41c14.443-2.1 27.151-2.02 37.843-1.981 41.795.153 90.727 22.932 127.642 61.101" transform="translate(441.756 211.719)" style="display:block"/></g></svg>
